<svg width="4521" height="868" viewBox="0 0 4521 868" fill="none" xmlns="http://www.w3.org/2000/svg">
<path d="M288.986 0.615586C177.351 9.99005 82.2457 74.8712 33.1512 175.153C14.5248 213.268 4.77993 249.409 1.20269 293.444C-0.400897 314.043 -0.400897 413.709 1.20269 434.308C7.4937 512.881 37.0985 577.885 91.2505 632.282C117.525 658.678 140.592 675.207 174.514 691.982C198.198 703.7 221.141 711.841 246.182 717.392C263.575 721.216 290.959 724.669 304.405 724.669C308.629 724.669 312.053 728.093 312.053 732.317V796.335V856.496C312.053 862.705 317.333 867.603 323.524 867.137C342.521 865.78 364.971 862.819 379.28 859.612C412.462 852.335 454.032 834.819 482.28 816.317C556.292 767.718 606.127 690.995 619.819 604.528C623.889 578.995 624.259 557.533 623.889 422.466C623.396 302.325 623.149 287.03 621.176 273.215C611.061 201.673 580.346 139.382 530.881 90.1664C482.527 42.0606 420.233 11.3469 352.759 2.58915C334.38 0.245541 304.898 -0.741244 288.986 0.615586ZM348.195 147.277C405.924 160.722 451.935 201.92 471.055 257.303C479.566 281.849 479.073 271.118 479.443 429.251C479.936 570.237 479.813 572.458 477.346 585.779C470.561 620.687 455.636 649.057 430.595 674.22C410.488 694.202 388.778 707.524 362.627 715.788C348.689 720.229 330.556 723.436 319.824 723.436C315.532 723.436 312.053 719.957 312.053 715.665V652.634V591.933C312.053 586.221 307.629 581.455 301.938 580.969C277.76 578.995 259.011 574.061 239.891 564.81C198.074 544.828 166.989 509.427 152.31 465.268C144.662 442.079 144.292 436.898 144.292 362.519C144.292 299.735 144.416 294.678 146.883 282.219C160.452 211.911 214.234 158.378 284.298 145.55C298.607 142.959 333.639 143.823 348.195 147.277Z" fill="#007AFF"/>
<path d="M1186.4 692.998L1185.5 693.898C1111.7 693.898 1051.7 671.998 1005.5 628.198C959.902 584.398 937.102 528.298 937.102 459.898C937.102 390.898 960.202 334.798 1006.4 291.598C1052.6 247.798 1112.3 225.898 1185.5 225.898C1243.7 225.898 1293.2 239.998 1334 268.198C1375.4 296.398 1402.7 334.498 1415.9 382.498H1295.3C1285.1 363.898 1270.4 349.198 1251.2 338.398C1232 326.998 1210.1 321.298 1185.5 321.298C1147.1 321.298 1115.3 334.198 1090.1 359.998C1065.5 385.798 1053.2 418.798 1053.2 458.998C1053.2 499.198 1065.5 532.198 1090.1 557.998C1115.3 583.798 1147.7 596.698 1187.3 596.698C1227.5 596.698 1259.3 583.498 1282.7 557.098C1306.7 530.098 1316.6 495.598 1312.4 453.598H1429.4C1433.6 524.398 1412.9 581.998 1367.3 626.398C1321.7 670.798 1261.4 692.998 1186.4 692.998ZM1786.07 224.998L1785.17 225.898C1837.37 225.898 1878.77 242.098 1909.37 274.498C1939.97 306.898 1955.27 351.298 1955.27 407.698V684.898H1840.97V428.398C1840.97 395.398 1832.27 369.598 1814.87 350.998C1797.47 332.398 1773.17 323.098 1741.97 323.098C1708.37 323.098 1681.37 333.598 1660.97 354.598C1641.17 374.998 1630.37 403.498 1628.57 440.098V684.898H1516.07V36.8984H1628.57V323.098H1629.47C1657.07 257.698 1709.27 224.998 1786.07 224.998ZM2322.64 224.998L2321.74 224.098C2329.54 224.098 2335.24 224.398 2338.84 224.998V336.598H2316.34C2220.94 336.598 2173.24 394.498 2173.24 510.298V683.998H2060.74V233.998H2168.74V366.298H2169.64C2192.44 272.098 2243.44 224.998 2322.64 224.998ZM2627.83 692.998C2554.63 692.998 2494.63 671.098 2447.83 627.298C2401.03 583.498 2377.63 527.398 2377.63 458.998C2377.63 390.598 2401.03 334.498 2447.83 290.698C2494.63 246.898 2554.63 224.998 2627.83 224.998C2700.43 224.998 2760.13 246.898 2806.93 290.698C2853.73 334.498 2877.13 390.598 2877.13 458.998C2877.13 527.398 2853.73 583.498 2806.93 627.298C2760.13 671.098 2700.43 692.998 2627.83 692.998ZM2529.73 558.898C2555.53 584.698 2588.23 597.598 2627.83 597.598C2667.43 597.598 2700.13 584.698 2725.93 558.898C2751.73 532.498 2764.63 499.198 2764.63 458.998C2764.63 418.798 2751.73 385.798 2725.93 359.998C2700.13 333.598 2667.43 320.398 2627.83 320.398C2588.23 320.398 2555.53 333.598 2529.73 359.998C2504.53 385.798 2491.93 418.798 2491.93 458.998C2491.93 499.198 2504.53 532.498 2529.73 558.898ZM3235.14 224.998H3234.24C3286.44 224.998 3327.84 241.198 3358.44 273.598C3389.04 305.998 3404.34 350.398 3404.34 406.798V683.998H3290.04V427.498C3290.04 394.498 3281.34 368.698 3263.94 350.098C3246.54 331.498 3222.24 322.198 3191.04 322.198C3156.24 322.198 3128.64 333.598 3108.24 356.398C3087.84 379.198 3077.64 410.398 3077.64 449.998V684.898H2965.14V234.898H3077.64V323.098H3078.54C3106.14 257.698 3158.34 224.998 3235.14 224.998ZM3737.01 692.998C3663.81 692.998 3603.81 671.098 3557.01 627.298C3510.21 583.498 3486.81 527.398 3486.81 458.998C3486.81 390.598 3510.21 334.498 3557.01 290.698C3603.81 246.898 3663.81 224.998 3737.01 224.998C3809.61 224.998 3869.31 246.898 3916.11 290.698C3962.91 334.498 3986.31 390.598 3986.31 458.998C3986.31 527.398 3962.91 583.498 3916.11 627.298C3869.31 671.098 3809.61 692.998 3737.01 692.998ZM3638.91 558.898C3664.71 584.698 3697.41 597.598 3737.01 597.598C3776.61 597.598 3809.31 584.698 3835.11 558.898C3860.91 532.498 3873.81 499.198 3873.81 458.998C3873.81 418.798 3860.91 385.798 3835.11 359.998C3809.31 333.598 3776.61 320.398 3737.01 320.398C3697.41 320.398 3664.71 333.598 3638.91 359.998C3613.71 385.798 3601.11 418.798 3601.11 458.998C3601.11 499.198 3613.71 532.498 3638.91 558.898ZM4280.5 692.998H4279.6C4211.8 692.998 4156.3 676.198 4113.1 642.598C4069.9 608.398 4047.7 563.398 4046.5 507.598H4161.7C4162.3 536.998 4173.4 560.698 4195 578.698C4217.2 596.098 4246.3 604.798 4282.3 604.798C4311.1 604.798 4334.2 599.098 4351.6 587.698C4369 576.298 4377.7 560.998 4377.7 541.798C4377.7 515.398 4359.4 499.798 4322.8 494.998L4218.4 482.398C4129 470.998 4084.3 431.998 4084.3 365.398C4084.3 322.798 4100.8 288.898 4133.8 263.698C4166.8 237.898 4211.5 224.998 4267.9 224.998C4324.3 224.998 4369 236.398 4402 259.198C4435 281.398 4454.5 313.198 4460.5 354.598H4346.2C4336.6 323.398 4310.5 307.798 4267.9 307.798C4245.7 307.798 4228 312.298 4214.8 321.298C4201.6 330.298 4195 342.898 4195 359.098C4195 383.098 4212.7 397.498 4248.1 402.298L4351.6 414.898C4444 426.298 4490.2 466.498 4490.2 535.498C4490.2 582.898 4471 620.998 4432.6 649.798C4394.2 678.598 4343.5 692.998 4280.5 692.998Z" fill="white"/>
</svg>
