<?xml version="1.0" standalone="no"?>
<!DOCTYPE svg PUBLIC "-//W3C//DTD SVG 20010904//EN"
 "http://www.w3.org/TR/2001/REC-SVG-20010904/DTD/svg10.dtd">
<svg version="1.0" xmlns="http://www.w3.org/2000/svg"
 width="1043.000000pt" height="1043.000000pt" viewBox="0 0 1043.000000 1043.000000"
 preserveAspectRatio="xMidYMid meet">
<metadata>
Created by potrace 1.14, written by Peter Selinger 2001-2017
</metadata>
<g transform="translate(0.000000,1043.000000) scale(0.100000,-0.100000)"
fill="#000000" stroke="none">
<path d="M4969 9546 c-2 -2 -31 -7 -64 -10 -82 -9 -110 -13 -225 -32 -14 -3
-47 -9 -75 -14 -27 -6 -59 -12 -70 -14 -194 -38 -514 -154 -730 -264 -119 -61
-337 -192 -390 -235 -5 -4 -45 -34 -88 -67 -667 -505 -1131 -1337 -1213 -2175
-3 -33 -8 -71 -11 -85 -10 -41 -11 -1349 -2 -1435 4 -44 11 -102 13 -130 46
-449 205 -918 437 -1290 59 -94 200 -290 248 -345 12 -14 46 -52 74 -85 51
-58 226 -235 283 -285 25 -21 125 -104 174 -143 221 -177 656 -398 975 -496
107 -32 247 -67 329 -81 28 -5 60 -11 71 -13 11 -3 47 -8 80 -12 33 -4 69 -9
80 -10 67 -9 150 -16 218 -20 65 -3 83 -7 103 -26 l24 -22 0 -645 c0 -709 -1
-697 61 -722 30 -13 127 -9 279 11 41 5 93 12 115 15 273 35 590 133 895 276
699 329 1258 928 1548 1658 40 102 97 268 106 315 2 6 8 28 14 50 14 50 40
168 47 215 3 19 8 42 10 50 4 14 12 79 21 155 16 143 19 415 19 1520 0 1152
-5 1524 -20 1640 -5 38 -11 71 -35 215 -6 33 -15 72 -21 87 -6 16 -10 29 -9
31 3 5 -12 67 -32 137 -11 39 -21 75 -23 80 -1 6 -5 17 -8 25 -3 8 -15 44 -27
80 -11 36 -25 74 -29 85 -5 11 -24 56 -41 100 -100 248 -260 518 -449 755 -94
118 -339 366 -446 451 -44 35 -82 66 -85 69 -14 15 -124 92 -190 134 -41 27
-86 56 -100 65 -14 8 -34 21 -45 26 -11 6 -58 32 -105 57 -159 87 -398 183
-591 239 -90 26 -312 75 -376 83 -15 2 -55 7 -88 11 -33 3 -71 9 -85 12 -30 5
-546 14 -551 9z m486 -1449 c11 -3 45 -8 75 -12 77 -10 259 -70 360 -117 47
-22 94 -44 105 -49 11 -5 29 -15 39 -21 11 -7 45 -28 75 -47 68 -42 162 -112
216 -162 22 -21 52 -48 67 -62 24 -23 79 -83 135 -149 42 -51 123 -176 167
-259 65 -123 147 -336 160 -419 3 -19 8 -48 11 -65 12 -71 18 -606 19 -1715 0
-652 -3 -1210 -7 -1240 -9 -67 -15 -103 -28 -155 -5 -22 -12 -51 -15 -65 -10
-50 -84 -240 -124 -319 -127 -254 -341 -494 -582 -654 -153 -101 -391 -201
-553 -232 -22 -5 -46 -9 -53 -11 -125 -24 -231 -33 -268 -21 -43 15 -44 27
-44 704 l0 646 -36 33 c-24 23 -46 34 -67 35 -18 0 -41 2 -52 4 -11 2 -42 7
-70 10 -102 11 -238 44 -355 86 -137 50 -362 178 -478 272 -58 47 -222 215
-270 277 -179 232 -310 547 -338 815 -10 100 -12 1304 -2 1400 43 425 269 843
608 1128 162 136 402 261 620 322 174 49 204 53 450 49 118 -1 224 -5 235 -7z"/>
</g>
</svg>
